<?xml version="1.0" encoding="UTF-8"?>
<svg width="50px" height="50px" viewBox="0 0 50 50" version="1.1" xmlns="http://www.w3.org/2000/svg" xmlns:xlink="http://www.w3.org/1999/xlink">
    <title>头像@2x</title>
    <defs>
        <radialGradient cx="50%" cy="50%" fx="50%" fy="50%" r="50%" id="radialGradient-1">
            <stop stop-color="#F5FAFF" offset="0%"></stop>
            <stop stop-color="#E9F4FF" offset="100%"></stop>
        </radialGradient>
        <rect id="path-2" x="0" y="0" width="50" height="50" rx="25"></rect>
        <linearGradient x1="50%" y1="0%" x2="50%" y2="100%" id="linearGradient-4">
            <stop stop-color="#E7F4FF" offset="0%"></stop>
            <stop stop-color="#CBE5FD" offset="100%"></stop>
        </linearGradient>
        <linearGradient x1="50%" y1="0%" x2="50%" y2="100%" id="linearGradient-5">
            <stop stop-color="#E7F4FF" offset="0%"></stop>
            <stop stop-color="#CBE5FD" offset="100%"></stop>
        </linearGradient>
    </defs>
    <g id="服务体系" stroke="none" stroke-width="1" fill="none" fill-rule="evenodd">
        <g id="我的部门" transform="translate(-30.000000, -273.000000)">
            <g id="编组-22备份-2" transform="translate(15.000000, 227.000000)">
                <g id="编组-21" transform="translate(15.000000, 12.000000)">
                    <g id="位图" transform="translate(0.000000, 34.000000)">
                        <mask id="mask-3" fill="white">
                            <use xlink:href="#path-2"></use>
                        </mask>
                        <use id="蒙版" fill="url(#radialGradient-1)" xlink:href="#path-2"></use>
                        <g id="头像" mask="url(#mask-3)" fill-rule="nonzero">
                            <g transform="translate(9.459459, 9.459459)">
                                <rect id="矩形" fill="#000000" opacity="0" x="0" y="0" width="31.0810811" height="31.0810811"></rect>
                                <path d="M26.7103041,27.1959459 C26.7103041,23.3627138 24.7792705,19.9805215 21.8365841,17.96875 C18.0387922,20.5588404 13.0422889,20.5588404 9.24449694,17.96875 C6.3018106,19.9805215 4.37077703,23.3627138 4.37077703,27.1959459 C4.37077703,28.0005838 5.02306487,28.6528716 5.8277027,28.6528716 L25.2533784,28.6528716 C26.0580162,28.6528716 26.7103041,28.0005838 26.7103041,27.1959459 L26.7103041,27.1959459 Z" id="路径" fill="#FFFFFF"></path>
                                <path d="M26.7103041,27.1959459 C26.7103041,23.3627138 24.7792705,19.9805215 21.8365841,17.96875 C19.9824287,19.2376361 17.7873052,19.9149147 15.5405405,19.9113176 C13.2049066,19.9113176 11.1697635,18.9703864 10.6841216,18.699034 C8.11325486,20.7478357 5.8277027,23.794328 5.8277027,27.1959459 C5.8277027,28.0005838 6.47999055,28.6528716 7.28462838,28.6528716 L25.2533784,28.6528716 C26.0580162,28.6528716 26.7103041,28.0005838 26.7103041,27.1959459 L26.7103041,27.1959459 Z" id="路径" fill="url(#linearGradient-4)"></path>
                                <path d="M8.74155405,9.22719595 C8.74155405,12.9821725 11.785564,16.0261824 15.5405405,16.0261824 C19.2955171,16.0261824 22.339527,12.9821725 22.339527,9.22719595 C22.339527,5.4722194 19.2955171,2.42820946 15.5405405,2.42820946 C11.785564,2.42820946 8.74155405,5.4722194 8.74155405,9.22719595 L8.74155405,9.22719595 Z" id="路径" fill="#FFFFFF"></path>
                                <path d="M10.1984797,9.95565878 C10.1984797,13.3083164 12.9163457,16.0261824 16.2690034,16.0261824 C19.621661,16.0261824 22.339527,13.3083164 22.339527,9.95565878 C22.339527,6.60300115 19.621661,3.88513514 16.2690034,3.88513514 C12.9163457,3.88513514 10.1984797,6.60300115 10.1984797,9.95565878 Z" id="路径" fill="url(#linearGradient-5)"></path>
                            </g>
                        </g>
                    </g>
                </g>
            </g>
        </g>
    </g>
</svg>