<?xml version="1.0" standalone="no"?><!DOCTYPE svg PUBLIC "-//W3C//DTD SVG 1.1//EN" "http://www.w3.org/Graphics/SVG/1.1/DTD/svg11.dtd"><svg class="icon" width="48px" height="48.00px" viewBox="0 0 1024 1024" version="1.1" xmlns="http://www.w3.org/2000/svg"><path fill="#1afa29" d="M298.656 298.656H384v128H298.656v-128zM469.344 298.656h85.344v128h-85.344v-128zM298.656 469.344H384v128H298.656v-128zM469.344 469.344h85.344v128h-85.344v-128zM298.656 640H384v128H298.656v-128zM469.344 640h85.344v128h-85.344v-128zM896 853.344v-409.6L725.344 358.4V128H128v725.344H42.656v85.344h938.656v-85.344h-85.344z m-682.656 0v-640H640v640H213.344z m512-401.088l85.344 42.656v358.4h-85.344V452.256z" /></svg>