<?xml version="1.0" standalone="no"?><!DOCTYPE svg PUBLIC "-//W3C//DTD SVG 1.1//EN" "http://www.w3.org/Graphics/SVG/1.1/DTD/svg11.dtd"><svg class="icon" width="48px" height="48.00px" viewBox="0 0 1024 1024" version="1.1" xmlns="http://www.w3.org/2000/svg"><path fill="#1afa29" d="M768.125 299.38366667c-7.98-14.465-22.944-23.443-39.404-23.443h-90.778c-7.981-0.499-14.465-6.983-14.465-14.963v-98.76c0-24.938-19.951-44.89-44.89-44.89h-139.66c-24.939 0-44.89 19.952-44.89 44.89v98.76c0 7.98-6.484 14.464-14.465 14.963h-91.277c-16.46 0-31.423 8.978-39.404 23.443l-139.659 258.37v98.26c0 24.938 19.952 44.89 44.89 44.89h708.77c24.94 0 44.89-19.952 44.89-44.89v-98.26l-139.658-258.37z m-344.659-38.406v-98.76c0-8.478 6.484-14.963 14.964-14.963h139.659c8.479 0 14.963 6.485 14.963 14.964v98.759c0 4.988 0.998 10.474 2.494 14.963H420.972c1.497-4.988 2.494-9.975 2.494-14.963z m454.39 395.035c0 8.48-6.483 14.964-14.963 14.964h-708.77c-8.479 0-14.963-6.484-14.963-14.964V576.70666667h482.821c8.48 0 14.964-6.484 14.964-14.964s-6.484-14.963-14.964-14.963H149.136l126.192-232.931c2.494-4.988 7.482-7.98 12.968-7.98h439.927c5.486 0 10.474 2.992 12.967 7.98l126.192 232.931H728.721c-8.48 0-14.964 6.484-14.964 14.963s6.485 14.964 14.964 14.964h149.136v79.306zM325.705 767.24166667c1.496-12.47 12.47-19.952 12.968-20.45 6.983-4.49 8.978-13.467 4.49-20.45-4.49-6.983-13.967-8.978-20.45-4.49-2.495 1.497-23.444 15.463-26.436 41.4-2.494 18.953 5.486 38.406 23.442 57.858 29.429 31.424 5.487 57.859 0.5 62.847-5.986 5.486-5.986 14.963-0.5 20.949 2.993 2.992 6.983 4.489 10.974 4.489 3.491 0 7.481-1.497 10.474-3.99 0.499-0.5 51.873-50.876 0.499-105.244-11.97-11.97-16.959-22.944-15.961-32.92zM504.269 767.24166667c1.496-12.47 12.47-19.952 12.968-20.45 6.983-4.49 8.978-13.467 4.49-20.45-4.49-6.983-13.967-8.978-20.45-4.49-2.495 1.497-23.444 15.463-26.436 41.4-2.494 18.953 5.486 38.406 23.442 57.858 29.429 31.424 5.487 57.859 0.5 62.847-5.986 5.486-5.986 14.963-0.5 20.949 2.993 2.992 6.983 4.489 10.974 4.489 3.491 0 7.481-1.497 10.474-3.99 0.499-0.5 51.873-50.876 0.499-105.244-11.472-11.97-16.959-22.944-15.961-32.92zM682.833 767.24166667c1.496-12.47 12.47-19.952 12.968-20.45 6.983-4.49 8.978-13.467 4.49-20.45-4.49-6.983-13.967-8.978-20.45-4.49-2.495 1.497-23.444 15.463-26.436 41.4-2.494 18.953 5.486 38.406 23.443 57.858 29.428 31.424 5.486 57.859 0.498 62.847-5.985 5.486-5.985 14.963-0.498 20.949 2.992 2.992 6.982 4.489 10.973 4.489 3.491 0 7.481-1.497 10.474-3.99 0.499-0.5 51.874-50.876 0.499-105.244-11.472-11.97-16.959-22.944-15.961-32.92z" /></svg>