<?xml version="1.0" encoding="UTF-8"?>
<svg width="30px" height="30px" viewBox="0 0 30 30" version="1.1" xmlns="http://www.w3.org/2000/svg" xmlns:xlink="http://www.w3.org/1999/xlink">
    <title>切片</title>
    <g id="服务体系" stroke="none" stroke-width="1" fill="none" fill-rule="evenodd">
        <g id="我的部门" transform="translate(-315.000000, -283.000000)">
            <g id="编组-22备份-2" transform="translate(15.000000, 227.000000)">
                <g id="编组-21" transform="translate(15.000000, 12.000000)">
                    <g id="编组-7" transform="translate(0.000000, 34.000000)">
                        <g id="图标/按钮图标/30pt/拨打电话/默认" transform="translate(285.000000, 10.000000)">
                            <circle id="椭圆形" fill="#F2F9FF" cx="15" cy="15" r="15"></circle>
                            <g id="电话" transform="translate(8.000000, 8.000000)" fill="#2798FF" fill-rule="nonzero">
                                <rect id="矩形" opacity="0" x="0" y="0" width="14" height="14"></rect>
                                <path d="M3.24055543,1.12447907 L3.24750535,1.13536448 C3.55241285,1.623207 3.96956962,2.94290308 4.2333433,3.97973853 L3.32864162,4.87570395 L2.80990288,5.38947937 L3.07189867,6.0682168 C3.12151786,6.1967607 4.32611664,9.23435081 7.69690823,10.7682334 L8.41242665,11.0938352 L8.96922831,10.5423611 L9.77735844,9.74196316 C9.78188397,9.73748093 9.78568218,9.73395918 9.78859145,9.73131787 C9.796996,9.73027735 9.81049177,9.72915679 9.83004852,9.72915679 C9.86390917,9.72915679 9.90391162,9.73235839 9.94868203,9.73868153 C10.451743,9.8098369 12.172737,10.1985101 12.579388,10.3327369 C12.7917646,10.4028517 12.8394443,10.4389497 12.8619911,10.6617804 C12.912176,11.1583473 12.6774142,11.7041386 12.2179922,12.1591648 C11.721962,12.6504491 11.1775247,12.8792028 10.5046756,12.8792028 C10.1438455,12.8792028 9.74196234,12.8124496 9.3100976,12.6808642 C7.17954332,12.0315814 5.04890823,10.4539971 2.97742826,7.99197317 C1.82519632,6.62273247 1.39244263,5.29911444 1.23227124,4.42988231 C1.037027,3.37023552 1.17909628,2.66612548 1.22475563,2.54862707 C1.26524295,2.44433522 1.6623581,1.51923532 3.11602258,1.15097224 C3.13800372,1.14528941 3.19311819,1.13136249 3.24055543,1.12447907 M3.28564909,0 C3.11723477,0 2.96086159,0.0336167555 2.83568224,0.0653125127 C1.09820245,0.505531363 0.370885335,1.62608844 0.168852803,2.14634708 C-0.1249025,2.90264306 -0.316025276,5.82817746 2.10836512,8.70960994 C4.53275551,11.5910424 6.87633289,13.1117984 8.97747123,13.7521168 C9.54986981,13.9265235 10.0561633,14 10.5047564,14 C11.7029709,14 12.4888775,13.4758194 13.0181219,12.9517189 C13.745439,12.2313607 14.0686911,11.350923 13.987878,10.5505251 C13.907065,9.75012722 13.422187,9.42996806 12.9373089,9.26988847 C12.4524308,9.10980889 10.6745445,8.70960994 10.1088534,8.62957015 C10.0165858,8.61611859 9.92347113,8.60916436 9.83021015,8.6087598 C9.4312363,8.6087598 9.17691775,8.75219111 8.97747123,8.94972931 L8.1693411,9.75012722 C5.17925962,8.38945077 4.12869045,5.66809788 4.12869045,5.66809788 L5.0984466,4.70762039 C5.34088564,4.46750102 5.42169866,4.06730206 5.34088564,3.7471429 C5.26007263,3.42698373 4.73478804,1.38596906 4.20950346,0.545551258 C3.93781011,0.110855154 3.59176879,0 3.28564909,0 L3.28564909,0 Z" id="形状"></path>
                            </g>
                        </g>
                    </g>
                </g>
            </g>
        </g>
    </g>
</svg>